<svg id="line" height="512" viewBox="0 0 64 64" width="512" xmlns="http://www.w3.org/2000/svg"><path d="m60.942 34.875a.985.985 0 0 1 -.952-.716 20.95 20.95 0 0 0 -1.971-4.767 1.006 1.006 0 0 1 .2-1.221 3 3 0 0 0 0-4.242l-2.652-2.652a3.016 3.016 0 0 0 -4.282.039.991.991 0 0 1 -1.181.166 20.84 20.84 0 0 0 -4.767-1.972 1 1 0 0 1 -.716-1.01 3 3 0 0 0 -3-3h-3.75a3.017 3.017 0 0 0 -3 3.058.986.986 0 0 1 -.715.952 20.874 20.874 0 0 0 -4.768 1.972 1.007 1.007 0 0 1 -1.221-.2 3.07 3.07 0 0 0 -4.242 0l-2.652 2.652a2.978 2.978 0 0 0 -.873 2.116 3.014 3.014 0 0 0 .918 2.16.989.989 0 0 1 .166 1.182 20.885 20.885 0 0 0 -1.973 4.768 1 1 0 0 1 -1.009.715 3 3 0 0 0 -3 3v3.75a3.017 3.017 0 0 0 3.058 3 .983.983 0 0 1 .951.715 20.885 20.885 0 0 0 1.973 4.768 1.008 1.008 0 0 1 -.2 1.221 3 3 0 0 0 0 4.242l2.651 2.652a3.045 3.045 0 0 0 4.282-.039.989.989 0 0 1 1.182-.166 20.885 20.885 0 0 0 4.767 1.972 1 1 0 0 1 .709 1.01 3 3 0 0 0 3 3h3.75a3.017 3.017 0 0 0 3-3.058.986.986 0 0 1 .715-.952 20.855 20.855 0 0 0 4.769-1.972 1.007 1.007 0 0 1 1.22.2 3 3 0 0 0 4.242 0l2.652-2.651a2.986 2.986 0 0 0 .877-2.117 3.022 3.022 0 0 0 -.918-2.161.986.986 0 0 1 -.165-1.181 20.939 20.939 0 0 0 1.973-4.768 1.006 1.006 0 0 1 1.01-.715 3 3 0 0 0 3-3v-3.75a3.017 3.017 0 0 0 -3.058-3zm-21.192 16.188a11.313 11.313 0 1 1 11.312-11.313 11.326 11.326 0 0 1 -11.312 11.313z" fill="#c4a2fc"/><g fill="#151a6a"><path d="m24.25 0a24.25 24.25 0 1 0 24.25 24.25 24.277 24.277 0 0 0 -24.25-24.25zm0 46.5a22.25 22.25 0 1 1 22.25-22.25 22.275 22.275 0 0 1 -22.25 22.25z"/><path d="m24.25 5a19.25 19.25 0 1 0 19.25 19.25 19.308 19.308 0 0 0 -19.25-19.25zm15.4 26.985-1.474-.851a1 1 0 0 0 -1 1.732l1.479.854a17.368 17.368 0 0 1 -4.932 4.932l-.854-1.479a1 1 0 1 0 -1.732 1l.851 1.474a17.1 17.1 0 0 1 -6.735 1.8v-1.7a1 1 0 0 0 -2 0v1.7a17.1 17.1 0 0 1 -6.735-1.8l.851-1.474a1 1 0 0 0 -1.732-1l-.854 1.479a17.368 17.368 0 0 1 -4.935-4.932l1.479-.854a1 1 0 1 0 -1-1.732l-1.474.851a17.1 17.1 0 0 1 -1.8-6.735h1.7a1 1 0 0 0 0-2h-1.7a17.1 17.1 0 0 1 1.8-6.735l1.474.851a1 1 0 1 0 1-1.732l-1.479-.854a17.368 17.368 0 0 1 4.932-4.932l.854 1.479a1 1 0 1 0 1.732-1l-.851-1.474a17.1 17.1 0 0 1 6.735-1.8v1.7a1 1 0 0 0 2 0v-1.7a17.1 17.1 0 0 1 6.735 1.8l-.851 1.474a1 1 0 0 0 1.732 1l.854-1.479a17.368 17.368 0 0 1 4.932 4.932l-1.479.854a1 1 0 1 0 1 1.732l1.474-.851a17.1 17.1 0 0 1 1.8 6.735h-1.7a1 1 0 0 0 0 2h1.7a17.1 17.1 0 0 1 -1.8 6.735z"/><path d="m24.25 13.123a1 1 0 0 0 -1 1v9.127h-6.127a1 1 0 0 0 0 2h7.127a1 1 0 0 0 1-1v-10.127a1 1 0 0 0 -1-1z"/></g></svg>